<svg width="25" height="27" viewBox="0 0 25 27" fill="none" xmlns="http://www.w3.org/2000/svg">
<path d="M3.83501 25.9993C5.40075 25.9993 6.67003 24.7557 6.67003 23.2216C6.67003 21.6875 5.40075 20.4438 3.83501 20.4438C2.26928 20.4438 1 21.6875 1 23.2216C1 24.7557 2.26928 25.9993 3.83501 25.9993Z" stroke="white" stroke-width="2" stroke-linecap="round" stroke-linejoin="round"/>
<path d="M19.4278 25.9993C20.9935 25.9993 22.2628 24.7557 22.2628 23.2216C22.2628 21.6875 20.9935 20.4438 19.4278 20.4438C17.8621 20.4438 16.5928 21.6875 16.5928 23.2216C16.5928 24.7557 17.8621 25.9993 19.4278 25.9993Z" stroke="white" stroke-width="2" stroke-linecap="round" stroke-linejoin="round"/>
<path d="M19.4276 20.4441H3.83501V1H1" stroke="white" stroke-width="2" stroke-linecap="round" stroke-linejoin="round"/>
<path d="M3.83496 3.77734L23.6801 5.16621L22.2625 14.8883H3.83496" stroke="white" stroke-width="2" stroke-linecap="round" stroke-linejoin="round"/>
</svg>
