<svg width="18" height="18" viewBox="0 0 18 18" fill="none" xmlns="http://www.w3.org/2000/svg">
<path d="M11.6943 2.27039C11.0102 1.53176 10.0546 1.125 8.99996 1.125C7.93964 1.125 6.98093 1.5293 6.29996 2.26336C5.6116 3.00551 5.27621 4.01414 5.35496 5.10328C5.51105 7.25203 7.14617 9 8.99996 9C10.8537 9 12.4861 7.25238 12.6446 5.10398C12.7244 4.02469 12.3869 3.01816 11.6943 2.27039ZM15.1875 16.875H2.81246C2.65048 16.8771 2.49007 16.8431 2.3429 16.7754C2.19573 16.7077 2.06549 16.6081 1.96168 16.4837C1.73316 16.2105 1.64105 15.8375 1.70925 15.4603C2.00597 13.8143 2.93199 12.4316 4.38746 11.4609C5.6805 10.5993 7.31843 10.125 8.99996 10.125C10.6815 10.125 12.3194 10.5996 13.6125 11.4609C15.0679 12.4312 15.9939 13.8139 16.2907 15.46C16.3589 15.8372 16.2668 16.2102 16.0382 16.4834C15.9345 16.6078 15.8042 16.7075 15.6571 16.7752C15.5099 16.843 15.3495 16.8771 15.1875 16.875Z" fill="#272727"/>
</svg>
