<svg width="18" height="17" viewBox="0 0 18 17" fill="none" xmlns="http://www.w3.org/2000/svg">
<path d="M13.5814 15.9375C13.4695 15.938 13.3604 15.9031 13.2696 15.8379L8.99934 12.7421L4.72908 15.8379C4.63785 15.9041 4.52794 15.9395 4.41524 15.9391C4.30254 15.9387 4.19289 15.9025 4.10214 15.8356C4.01139 15.7688 3.94425 15.6748 3.91042 15.5673C3.87659 15.4598 3.87782 15.3444 3.91395 15.2376L5.57941 10.3046L1.26301 7.34455C1.16951 7.28051 1.09895 7.18824 1.06162 7.08123C1.0243 6.97423 1.02217 6.85809 1.05555 6.74979C1.08893 6.64149 1.15607 6.5467 1.24716 6.47927C1.33825 6.41185 1.44851 6.37532 1.56184 6.37502H6.88695L8.49399 1.42941C8.5286 1.32264 8.59615 1.22957 8.68694 1.16357C8.77773 1.09756 8.88709 1.06201 8.99934 1.06201C9.11158 1.06201 9.22094 1.09756 9.31173 1.16357C9.40252 1.22957 9.47007 1.32264 9.50469 1.42941L11.1117 6.37668H16.4368C16.5503 6.37662 16.6608 6.4129 16.7522 6.4802C16.8435 6.54749 16.9109 6.64227 16.9445 6.75066C16.9781 6.85904 16.9761 6.97533 16.9388 7.0825C16.9016 7.18967 16.8309 7.28208 16.7373 7.34621L12.4193 10.3046L14.0837 15.2363C14.1107 15.3161 14.1183 15.4012 14.1059 15.4846C14.0934 15.5679 14.0614 15.6471 14.0123 15.7157C13.9632 15.7842 13.8985 15.84 13.8236 15.8786C13.7487 15.9172 13.6656 15.9374 13.5814 15.9375Z" fill="white"/>
</svg>
