<svg width="61" height="60" viewBox="0 0 61 60" fill="none" xmlns="http://www.w3.org/2000/svg">
<path d="M30.801 22.4249C30.6277 22.2407 30.4188 22.0929 30.1867 21.9904C29.9546 21.888 29.7041 21.8329 29.45 21.8284C29.1959 21.824 28.9436 21.8703 28.708 21.9646C28.4723 22.0589 28.2583 22.1993 28.0786 22.3773C27.8989 22.5553 27.7573 22.7674 27.6621 23.0009C27.567 23.2344 27.5202 23.4844 27.5247 23.7362C27.5292 23.988 27.5848 24.2362 27.6882 24.4662C27.7916 24.6962 27.9408 24.9032 28.1267 25.0749L30.5739 27.4999L28.1267 29.9249C27.9408 30.0966 27.7916 30.3036 27.6882 30.5336C27.5848 30.7635 27.5292 31.0118 27.5247 31.2636C27.5202 31.5153 27.567 31.7654 27.6621 31.9989C27.7573 32.2324 27.8989 32.4444 28.0786 32.6225C28.2583 32.8005 28.4723 32.9409 28.708 33.0352C28.9436 33.1295 29.1959 33.1758 29.45 33.1714C29.7041 33.1669 29.9546 33.1118 30.1867 33.0093C30.4188 32.9069 30.6277 32.7591 30.801 32.5749L33.2482 30.1499L35.6955 32.5749C35.8687 32.7591 36.0776 32.9069 36.3097 33.0093C36.5418 33.1118 36.7924 33.1669 37.0464 33.1714C37.3005 33.1758 37.5529 33.1295 37.7885 33.0352C38.0241 32.9409 38.2381 32.8005 38.4178 32.6225C38.5975 32.4444 38.7391 32.2324 38.8343 31.9989C38.9295 31.7654 38.9762 31.5153 38.9717 31.2636C38.9673 31.0118 38.9116 30.7635 38.8082 30.5336C38.7048 30.3036 38.5557 30.0966 38.3698 29.9249L35.9225 27.4999L38.3698 25.0749C38.5557 24.9032 38.7048 24.6962 38.8082 24.4662C38.9116 24.2362 38.9673 23.988 38.9717 23.7362C38.9762 23.4844 38.9295 23.2344 38.8343 23.0009C38.7391 22.7674 38.5975 22.5553 38.4178 22.3773C38.2381 22.1993 38.0241 22.0589 37.7885 21.9646C37.5529 21.8703 37.3005 21.824 37.0464 21.8284C36.7924 21.8329 36.5418 21.888 36.3097 21.9904C36.0776 22.0929 35.8687 22.2407 35.6955 22.4249L33.2482 24.8499L30.801 22.4249Z" fill="#272727"/>
<path fill-rule="evenodd" clip-rule="evenodd" d="M3.71239 6.87737C3.87874 6.40832 4.22627 6.02394 4.67857 5.80875C5.13088 5.59356 5.65091 5.56519 6.12432 5.72987L6.88372 5.99487C8.44037 6.53737 9.75987 6.99737 10.8018 7.50237C11.9119 8.04487 12.8656 8.70987 13.5821 9.74987C14.2936 10.7799 14.5888 11.9124 14.7225 13.1549L14.7502 13.4249H43.6429C45.7092 13.4249 47.8133 13.4249 49.5466 13.6174C50.4296 13.7149 51.305 13.8699 52.0771 14.1399C52.8339 14.4024 53.669 14.8349 54.2619 15.5999C55.2257 16.8399 55.3947 18.2849 55.3039 19.7499C55.2156 21.1449 54.8674 22.8799 54.4511 24.9424L54.4259 25.0749L54.4209 25.0849L53.1392 31.2599C52.7608 33.0749 52.4429 34.6024 52.0317 35.8099C51.5977 37.0849 50.9973 38.2099 49.92 39.0799C48.8427 39.9474 47.6089 40.3049 46.2592 40.4699C44.9851 40.6249 43.4083 40.6249 41.5413 40.6249H27.8998C24.5064 40.6249 21.7564 40.6249 19.5917 40.3199C17.3287 40.0024 15.4289 39.3199 13.9328 37.7549C12.5528 36.3149 11.8161 34.7849 11.4477 32.6499C11.1021 30.6499 11.0693 28.0299 11.0693 24.3999V17.5949C11.0693 15.7449 11.0642 14.5074 10.9608 13.5574C10.8599 12.6499 10.6858 12.1949 10.4562 11.8649C10.2367 11.5424 9.90115 11.2399 9.13418 10.8699C8.31927 10.4749 7.2117 10.0849 5.52638 9.49737L4.87042 9.26987C4.63552 9.18851 4.41912 9.06205 4.23361 8.89771C4.0481 8.73337 3.89712 8.53439 3.78932 8.31216C3.68152 8.08992 3.61902 7.84881 3.60538 7.6026C3.59175 7.3564 3.62978 7.10995 3.71239 6.87737ZM14.8512 17.1749V24.3999C14.8512 28.1224 14.8966 30.3949 15.1791 32.0174C15.4339 33.5049 15.8704 34.3299 16.6778 35.1749C17.3665 35.8949 18.3177 36.3549 20.1216 36.6074C21.9885 36.8699 24.4711 36.8749 28.0436 36.8749H41.4252C43.4411 36.8749 44.7807 36.8724 45.8 36.7499C46.7638 36.6324 47.2128 36.4274 47.5282 36.1724C47.8436 35.9174 48.1337 35.5224 48.4466 34.6099C48.7745 33.6474 49.047 32.3474 49.4557 30.3899L50.7122 24.3399V24.3349C51.1612 22.1099 51.4564 20.6299 51.5245 19.5199C51.5901 18.4674 51.4236 18.0974 51.2697 17.8949C51.135 17.7968 50.9838 17.7232 50.8232 17.6774C50.2719 17.5053 49.7035 17.393 49.1278 17.3424C47.6266 17.1774 45.7243 17.1749 43.5647 17.1749H14.8512ZM13.6956 48.7499C13.6956 50.2417 14.2937 51.6725 15.3583 52.7273C16.4229 53.7822 17.8667 54.3749 19.3723 54.3749C20.8778 54.3749 22.3216 53.7822 23.3862 52.7273C24.4508 51.6725 25.0489 50.2417 25.0489 48.7499C25.0489 47.258 24.4508 45.8273 23.3862 44.7724C22.3216 43.7175 20.8778 43.1249 19.3723 43.1249C17.8667 43.1249 16.4229 43.7175 15.3583 44.7724C14.2937 45.8273 13.6956 47.258 13.6956 48.7499ZM19.3723 50.6249C18.8704 50.6249 18.3891 50.4273 18.0343 50.0757C17.6794 49.7241 17.4801 49.2471 17.4801 48.7499C17.4801 48.2526 17.6794 47.7757 18.0343 47.424C18.3891 47.0724 18.8704 46.8749 19.3723 46.8749C19.8741 46.8749 20.3554 47.0724 20.7102 47.424C21.0651 47.7757 21.2645 48.2526 21.2645 48.7499C21.2645 49.2471 21.0651 49.7241 20.7102 50.0757C20.3554 50.4273 19.8741 50.6249 19.3723 50.6249ZM36.4021 48.7499C36.4021 49.4886 36.5489 50.22 36.8342 50.9025C37.1195 51.5849 37.5376 52.205 38.0647 52.7273C38.5918 53.2497 39.2176 53.664 39.9063 53.9467C40.595 54.2294 41.3332 54.3749 42.0787 54.3749C42.8241 54.3749 43.5623 54.2294 44.251 53.9467C44.9397 53.664 45.5655 53.2497 46.0926 52.7273C46.6198 52.205 47.0379 51.5849 47.3232 50.9025C47.6085 50.22 47.7553 49.4886 47.7553 48.7499C47.7553 47.258 47.1572 45.8273 46.0926 44.7724C45.0281 43.7175 43.5842 43.1249 42.0787 43.1249C40.5731 43.1249 39.1293 43.7175 38.0647 44.7724C37.0001 45.8273 36.4021 47.258 36.4021 48.7499ZM42.0787 50.6249C41.5768 50.6249 41.0955 50.4273 40.7407 50.0757C40.3858 49.7241 40.1865 49.2471 40.1865 48.7499C40.1865 48.2526 40.3858 47.7757 40.7407 47.424C41.0955 47.0724 41.5768 46.8749 42.0787 46.8749C42.5805 46.8749 43.0618 47.0724 43.4167 47.424C43.7715 47.7757 43.9709 48.2526 43.9709 48.7499C43.9709 49.2471 43.7715 49.7241 43.4167 50.0757C43.0618 50.4273 42.5805 50.6249 42.0787 50.6249Z" fill="#272727"/>
</svg>
