<svg width="27" height="28" viewBox="0 0 27 28" fill="none" xmlns="http://www.w3.org/2000/svg">
<path fill-rule="evenodd" clip-rule="evenodd" d="M12.9375 3.59375C11.6448 3.59375 10.3648 3.84837 9.17046 4.34306C7.97616 4.83776 6.891 5.56284 5.97692 6.47692C5.06284 7.391 4.33776 8.47616 3.84306 9.67046C3.34837 10.8648 3.09375 12.1448 3.09375 13.4375C3.09375 14.7302 3.34837 16.0102 3.84306 17.2045C4.33776 18.3988 5.06284 19.484 5.97692 20.3981C6.891 21.3122 7.97616 22.0372 9.17046 22.5319C10.3648 23.0266 11.6448 23.2813 12.9375 23.2813C15.5482 23.2813 18.052 22.2441 19.8981 20.3981C21.7441 18.552 22.7813 16.0482 22.7813 13.4375C22.7813 10.8268 21.7441 8.32298 19.8981 6.47692C18.052 4.63086 15.5482 3.59375 12.9375 3.59375ZM1.40625 13.4375C1.40625 7.07 6.57 1.90625 12.9375 1.90625C19.305 1.90625 24.4688 7.07 24.4688 13.4375C24.4688 16.3175 23.4124 18.9523 21.6664 20.9728L25.3463 24.6538C25.4292 24.731 25.4956 24.8241 25.5418 24.9276C25.5879 25.0311 25.6127 25.1429 25.6147 25.2562C25.6167 25.3695 25.5958 25.482 25.5534 25.5871C25.511 25.6921 25.4478 25.7876 25.3677 25.8677C25.2876 25.9478 25.1921 26.011 25.0871 26.0534C24.982 26.0958 24.8695 26.1167 24.7562 26.1147C24.6429 26.1127 24.5311 26.0879 24.4276 26.0418C24.3241 25.9956 24.231 25.9292 24.1538 25.8463L20.4728 22.1664C18.3806 23.9777 15.7048 24.9728 12.9375 24.9688C6.57 24.9688 1.40625 19.805 1.40625 13.4375Z" fill="#272727"/>
</svg>
