<svg width="27" height="28" viewBox="0 0 27 28" fill="none" xmlns="http://www.w3.org/2000/svg">
<path fill-rule="evenodd" clip-rule="evenodd" d="M13.5001 1.90625C12.0828 1.90625 10.7236 2.46925 9.72146 3.4714C8.71931 4.47355 8.15631 5.83275 8.15631 7.25C8.15631 8.66725 8.71931 10.0265 9.72146 11.0286C10.7236 12.0307 12.0828 12.5937 13.5001 12.5937C14.9173 12.5937 16.2765 12.0307 17.2787 11.0286C18.2808 10.0265 18.8438 8.66725 18.8438 7.25C18.8438 5.83275 18.2808 4.47355 17.2787 3.4714C16.2765 2.46925 14.9173 1.90625 13.5001 1.90625ZM9.84381 7.25C9.84381 6.2803 10.229 5.35032 10.9147 4.66464C11.6004 3.97896 12.5304 3.59375 13.5001 3.59375C14.4698 3.59375 15.3997 3.97896 16.0854 4.66464C16.7711 5.35032 17.1563 6.2803 17.1563 7.25C17.1563 8.2197 16.7711 9.14968 16.0854 9.83536C15.3997 10.521 14.4698 10.9062 13.5001 10.9062C12.5304 10.9062 11.6004 10.521 10.9147 9.83536C10.229 9.14968 9.84381 8.2197 9.84381 7.25ZM13.5001 14.2812C10.8979 14.2812 8.49944 14.873 6.72306 15.872C4.97256 16.8575 3.65631 18.3492 3.65631 20.1875V20.3022C3.65519 21.6095 3.65406 23.2497 5.09294 24.422C5.80056 24.998 6.79169 25.4086 8.13044 25.6786C9.47144 25.9509 11.2208 26.0937 13.5001 26.0937C15.7793 26.0937 17.5276 25.9509 18.8708 25.6786C20.2096 25.4086 21.1996 24.998 21.9083 24.422C23.3472 23.2497 23.3449 21.6095 23.3438 20.3022V20.1875C23.3438 18.3492 22.0276 16.8575 20.2782 15.872C18.5007 14.873 16.1033 14.2812 13.5001 14.2812ZM5.34381 20.1875C5.34381 19.2301 6.04356 18.1906 7.54994 17.3435C9.03044 16.511 11.1319 15.9687 13.5012 15.9687C15.8682 15.9687 17.9697 16.511 19.4502 17.3435C20.9577 18.1906 21.6563 19.2301 21.6563 20.1875C21.6563 21.659 21.6113 22.487 20.8418 23.1125C20.4256 23.4522 19.7281 23.7841 18.5356 24.0249C17.3464 24.2656 15.7208 24.4062 13.5001 24.4062C11.2793 24.4062 9.65256 24.2656 8.46456 24.0249C7.27206 23.7841 6.57456 23.4522 6.15831 23.1136C5.38881 22.487 5.34381 21.659 5.34381 20.1875Z" fill="#272727"/>
</svg>
